<svg width="164" height="25" viewBox="0 0 164 25" fill="none" xmlns="http://www.w3.org/2000/svg">
<path d="M0.0227273 24.5V1.22727H9.20455C10.9697 1.22727 12.4735 1.56439 13.7159 2.23864C14.9583 2.9053 15.9053 3.83333 16.5568 5.02273C17.2159 6.20454 17.5455 7.56818 17.5455 9.11364C17.5455 10.6591 17.2121 12.0227 16.5455 13.2045C15.8788 14.3864 14.9129 15.3068 13.6477 15.9659C12.3902 16.625 10.8674 16.9545 9.07955 16.9545H3.22727V13.0114H8.28409C9.23106 13.0114 10.0114 12.8485 10.625 12.5227C11.2462 12.1894 11.7083 11.7311 12.0114 11.1477C12.322 10.5568 12.4773 9.87879 12.4773 9.11364C12.4773 8.34091 12.322 7.66667 12.0114 7.09091C11.7083 6.50757 11.2462 6.05682 10.625 5.73864C10.0038 5.41288 9.21591 5.25 8.26136 5.25H4.94318V24.5H0.0227273ZM20.7415 24.5V1.22727H29.9233C31.6809 1.22727 33.1809 1.54167 34.4233 2.17045C35.6733 2.79167 36.6241 3.67424 37.2756 4.81818C37.9347 5.95454 38.2642 7.29167 38.2642 8.82955C38.2642 10.375 37.9309 11.7045 37.2642 12.8182C36.5975 13.9242 35.6316 14.7727 34.3665 15.3636C33.1089 15.9545 31.5862 16.25 29.7983 16.25H23.6506V12.2955H29.0028C29.9422 12.2955 30.7225 12.1667 31.3438 11.9091C31.965 11.6515 32.4271 11.2652 32.7301 10.75C33.0407 10.2348 33.196 9.5947 33.196 8.82955C33.196 8.05682 33.0407 7.4053 32.7301 6.875C32.4271 6.3447 31.9612 5.94318 31.3324 5.67045C30.7112 5.39015 29.9271 5.25 28.9801 5.25H25.6619V24.5H20.7415ZM33.3097 13.9091L39.0938 24.5H33.6619L28.0028 13.9091H33.3097ZM63.1278 12.8636C63.1278 15.4015 62.6468 17.5606 61.6847 19.3409C60.7301 21.1212 59.4271 22.4811 57.7756 23.4205C56.1316 24.3523 54.2831 24.8182 52.2301 24.8182C50.1619 24.8182 48.3059 24.3485 46.6619 23.4091C45.018 22.4697 43.7188 21.1098 42.7642 19.3295C41.8097 17.5492 41.3324 15.3939 41.3324 12.8636C41.3324 10.3258 41.8097 8.16667 42.7642 6.38636C43.7188 4.60606 45.018 3.25 46.6619 2.31818C48.3059 1.37879 50.1619 0.90909 52.2301 0.90909C54.2831 0.90909 56.1316 1.37879 57.7756 2.31818C59.4271 3.25 60.7301 4.60606 61.6847 6.38636C62.6468 8.16667 63.1278 10.3258 63.1278 12.8636ZM58.1392 12.8636C58.1392 11.2197 57.893 9.83333 57.4006 8.70455C56.9157 7.57576 56.2301 6.7197 55.3438 6.13636C54.4574 5.55303 53.4195 5.26136 52.2301 5.26136C51.0407 5.26136 50.0028 5.55303 49.1165 6.13636C48.2301 6.7197 47.5407 7.57576 47.0483 8.70455C46.5634 9.83333 46.321 11.2197 46.321 12.8636C46.321 14.5076 46.5634 15.8939 47.0483 17.0227C47.5407 18.1515 48.2301 19.0076 49.1165 19.5909C50.0028 20.1742 51.0407 20.4659 52.2301 20.4659C53.4195 20.4659 54.4574 20.1742 55.3438 19.5909C56.2301 19.0076 56.9157 18.1515 57.4006 17.0227C57.893 15.8939 58.1392 14.5076 58.1392 12.8636ZM77.5568 10.9432V14.7841H66.9432V10.9432H77.5568ZM90.0227 24.5H81.7727V1.22727H90.0909C92.4318 1.22727 94.447 1.69318 96.1364 2.625C97.8258 3.54924 99.125 4.87879 100.034 6.61364C100.951 8.34848 101.409 10.4242 101.409 12.8409C101.409 15.2652 100.951 17.3485 100.034 19.0909C99.125 20.8333 97.8182 22.1705 96.1136 23.1023C94.4167 24.0341 92.3864 24.5 90.0227 24.5ZM86.6932 20.2841H89.8182C91.2727 20.2841 92.4962 20.0265 93.4886 19.5114C94.4886 18.9886 95.2386 18.1818 95.7386 17.0909C96.2462 15.9924 96.5 14.5758 96.5 12.8409C96.5 11.1212 96.2462 9.71591 95.7386 8.625C95.2386 7.53409 94.4924 6.73106 93.5 6.21591C92.5076 5.70076 91.2841 5.44318 89.8295 5.44318H86.6932V20.2841ZM105.054 24.5V1.22727H120.736V5.28409H109.974V10.8295H119.929V14.8864H109.974V20.4432H120.781V24.5H105.054ZM128.659 24.5H123.386L131.42 1.22727H137.761L145.784 24.5H140.511L134.682 6.54545H134.5L128.659 24.5ZM128.33 15.3523H140.784V19.1932H128.33V15.3523ZM148.585 24.5V1.22727H153.506V20.4432H163.483V24.5H148.585Z" fill="#2C2D2E"/>
</svg>
